<?xml version="1.0" encoding="UTF-8"?>
<!DOCTYPE svg PUBLIC "-//W3C//DTD SVG 1.1//EN" "http://www.w3.org/Graphics/SVG/1.1/DTD/svg11.dtd">
<svg xmlns="http://www.w3.org/2000/svg" version="1.1" width="2748px" height="730px" style="shape-rendering:geometricPrecision; text-rendering:geometricPrecision; image-rendering:optimizeQuality; fill-rule:evenodd; clip-rule:evenodd" xmlns:xlink="http://www.w3.org/1999/xlink">
<g><path style="opacity:0.962" fill="#000000" d="M 97.5,114.5 C 239.167,114.333 380.834,114.5 522.5,115C 537.001,118.509 543.167,127.676 541,142.5C 537.735,152.431 530.902,157.931 520.5,159C 380.167,159.667 239.833,159.667 99.5,159C 82.2768,155.725 75.7768,145.558 80,128.5C 83.6415,121.018 89.4749,116.352 97.5,114.5 Z"/></g>
<g><path style="opacity:0.979" fill="#000000" d="M 623.5,114.5 C 632.792,113.873 640.292,117.206 646,124.5C 709.243,261.984 772.743,399.317 836.5,536.5C 899.924,399.984 963.09,263.317 1026,126.5C 1034.99,114.126 1046.16,111.626 1059.5,119C 1069.1,127.704 1070.93,137.87 1065,149.5C 995.393,299.714 926.06,450.047 857,600.5C 850.851,611.116 841.684,614.949 829.5,612C 824.645,610.495 820.812,607.662 818,603.5C 748.667,453.5 679.333,303.5 610,153.5C 600.343,135.297 604.843,122.297 623.5,114.5 Z"/></g>
<g><path style="opacity:0.975" fill="#000000" d="M 1150.5,114.5 C 1156.23,113.895 1161.57,115.062 1166.5,118C 1220.35,176.883 1273.85,236.05 1327,295.5C 1336.45,308.086 1335.29,319.586 1323.5,330C 1315.17,334.667 1306.83,334.667 1298.5,330C 1257.69,285.517 1217.19,240.684 1177,195.5C 1176.67,328.833 1176.33,462.167 1176,595.5C 1171.45,609.354 1161.95,614.854 1147.5,612C 1138.47,609.124 1133.3,602.957 1132,593.5C 1131.33,440.167 1131.33,286.833 1132,133.5C 1134.31,123.355 1140.48,117.022 1150.5,114.5 Z"/></g>
<g><path style="opacity:0.975" fill="#000000" d="M 1570.5,114.5 C 1584.05,114.681 1592.22,121.347 1595,134.5C 1595.67,287.833 1595.67,441.167 1595,594.5C 1592.41,606.555 1584.91,612.555 1572.5,612.5C 1567.81,612.659 1563.48,611.493 1559.5,609C 1505.65,550.117 1452.15,490.95 1399,431.5C 1389.44,415.913 1392.6,403.746 1408.5,395C 1415.05,393.919 1421.39,394.586 1427.5,397C 1468.7,441.868 1509.54,487.035 1550,532.5C 1550.33,399.167 1550.67,265.833 1551,132.5C 1553.91,122.422 1560.41,116.422 1570.5,114.5 Z"/></g>
<g><path style="opacity:0.969" fill="#000000" d="M 1676.5,114.5 C 1817.83,114.333 1959.17,114.5 2100.5,115C 2116.05,118.893 2122.22,128.727 2119,144.5C 2116.38,151.391 2111.54,155.891 2104.5,158C 2042.87,159.478 1981.2,159.978 1919.5,159.5C 1919.67,304.834 1919.5,450.167 1919,595.5C 1913.55,610.639 1903.05,615.806 1887.5,611C 1880.65,607.14 1876.48,601.307 1875,593.5C 1874.5,448.834 1874.33,304.167 1874.5,159.5C 1807.14,159.979 1739.8,159.479 1672.5,158C 1662.36,154.744 1657.03,147.744 1656.5,137C 1657.8,124.546 1664.46,117.046 1676.5,114.5 Z"/></g>
<g><path style="opacity:0.981" fill="#000000" d="M 2205.5,114.5 C 2347.17,114.333 2488.83,114.5 2630.5,115C 2642.32,117.762 2648.65,125.262 2649.5,137.5C 2649.09,142.236 2647.59,146.57 2645,150.5C 2516.68,289.65 2388.18,428.65 2259.5,567.5C 2383.83,568.333 2508.17,568.833 2632.5,569C 2646.95,575.07 2651.78,585.57 2647,600.5C 2643.73,605.774 2639.23,609.608 2633.5,612C 2489.17,612.667 2344.83,612.667 2200.5,612C 2188.75,607.007 2183.92,598.174 2186,585.5C 2186.72,583.051 2187.72,580.717 2189,578.5C 2317.87,439.3 2446.37,299.8 2574.5,160C 2452.17,159.667 2329.83,159.333 2207.5,159C 2194.2,157.699 2186.87,150.366 2185.5,137C 2186.79,124.548 2193.46,117.048 2205.5,114.5 Z"/></g>
<g><path style="opacity:0.964" fill="#000000" d="M 96.5,341.5 C 238.5,341.333 380.5,341.5 522.5,342C 537.001,345.509 543.167,354.676 541,369.5C 537.749,379.415 530.915,384.915 520.5,386C 380.167,386.667 239.833,386.667 99.5,386C 81.967,382.447 75.467,371.947 80,354.5C 83.9189,348.073 89.4189,343.739 96.5,341.5 Z"/></g>
<g><path style="opacity:0.992" fill="#000000" d="M 95.5,568.5 C 238.5,568.333 381.5,568.5 524.5,569C 541.405,576.384 545.572,588.217 537,604.5C 534.072,608.381 530.239,610.881 525.5,612C 381.833,612.667 238.167,612.667 94.5,612C 80.4282,606.353 75.5949,596.186 80,581.5C 83.5916,575.143 88.7583,570.81 95.5,568.5 Z"/></g>
</svg>
